<svg xmlns="http://www.w3.org/2000/svg" xmlns:xlink="http://www.w3.org/1999/xlink" version="1.1" x="0px" y="0px" viewBox="0 0 100 100" enable-background="new 0 0 100 100" xml:space="preserve"><g><path d="M50.061,88.59C50.061,88.59,50.061,88.59,50.061,88.59c-1.845,0-3.195-1.479-4.316-2.864   c-2.854-3.545-30.583-34.271-30.862-34.582l-0.11-0.134c-8.99-11.902-8.976-23.421,0.04-32.437   c4.298-4.298,10.048-6.665,16.192-6.665c6.22,0,12.063,2.417,16.452,6.805l2.645,2.645l2.645-2.645   c4.389-4.389,10.231-6.805,16.452-6.805c6.144,0,11.894,2.367,16.192,6.665c9.025,9.025,8.745,20.56-0.789,32.48   C84.274,51.432,57.205,82.46,54.469,85.71C53.242,87.167,51.892,88.59,50.061,88.59z"></path></g></svg>