<svg xmlns="http://www.w3.org/2000/svg" xmlns:xlink="http://www.w3.org/1999/xlink" version="1.1" x="0px" y="0px" viewBox="0 0 100 100" style="enable-background:new 0 0 100 100;" xml:space="preserve"><g><path d="M68.7952881,19.2782593c-4.111145-0.5310059-8.1298828,0.3007813-11.6513062,2.4223022L50,26.1999512l-7.1696777-4.5151978   c-3.4951782-2.1062012-7.5149536-2.9375-11.6251221-2.4064941c-8.1329346,1.0531006-14.6293335,7.7525635-15.4468384,15.9303589   c-0.3556519,3.5634155,0.3294678,7.0971069,1.9832153,10.2193604c0.5117188,0.9656982,1.1800537,1.9298706,2.1447144,3.0822754   l28.9914551,31.8696899C49.1652222,80.6960449,49.5727539,80.8763428,50,80.8763428s0.8347778-0.1802979,1.1222534-0.4963989   l29.0334473-31.9176025c0.9226685-1.1044922,1.5910034-2.0686646,2.1032104-3.0348511   c1.6532593-3.1217651,2.3383789-6.6554565,1.9827271-10.2193604   C83.4241333,27.0308228,76.9277344,20.3313599,68.7952881,19.2782593z M79.5772705,44.0064087   c-0.4104614,0.7744751-0.9666748,1.5722046-1.7080688,2.461853L50,77.1040649L22.1727905,46.5161743   c-0.7833862-0.937561-1.3395996-1.7352905-1.7495728-2.5092773c-1.3726807-2.5917358-1.9412231-5.5297852-1.6448364-8.49646   c0.6781616-6.7878418,6.0686646-12.3487549,12.8165283-13.2220459c0.6747437-0.0874634,1.3460083-0.1309204,2.0113525-0.1309204   c2.7113037,0,5.3223267,0.7191772,7.6325073,2.1106567l7.9526367,5.0091553c0.4939575,0.3112183,1.12323,0.3112183,1.6171875,0   l7.9269409-4.9933472c2.9034424-1.7490845,6.2459717-2.4391479,9.6700439-1.9955444   c6.7473755,0.873291,12.1378784,6.4342041,12.81604,13.2215576C81.5180054,38.4771118,80.9494629,41.4151611,79.5772705,44.0064087   z"></path></g></svg>