<svg xmlns="http://www.w3.org/2000/svg" xmlns:xlink="http://www.w3.org/1999/xlink" version="1.1" x="0px" y="0px" viewBox="0 0 96 96" enable-background="new 0 0 96 96" xml:space="preserve"><path d="M20.865,52.255v3.583v1.5V91.25h61.315V57.338v-1.5V43.746h-0.726h-7.26h-1.7h-5.561h-1.7h-5.562h-1.698h-5.563h-1.699  h-5.562h-1.7h-5.56h-1.7h-6.817c-0.077-0.804-0.275-1.573-0.579-2.288l0.995-0.535v-0.001l6.394-3.44V37.48l4.897-2.635v0.001  l7.89-4.248l11.291-6.077v0.001l4.124-2.221l10.867-5.849L68.811,4.484l-0.639,0.344V4.827l-5.611,3.021L61.778,8.27V8.269  L56.39,11.17l-1.005,0.541l-0.859,0.463l-0.323,0.174l-4.351,2.342l-2.356,1.268l-6.394,3.441l-1.932,1.04l-4.461,2.4v0.001  l-6.394,3.44v0.001l-2.34,1.26l-4.054,2.181v0.001l-7.102,3.822l2.423,4.501c-2.064,1.403-3.424,3.771-3.424,6.45  C13.819,48.542,16.917,51.876,20.865,52.255z M68.17,6.532l0.031-0.017l5.021,9.328l-5.068,2.728L68.17,6.532z M55.387,13.413  l1.955-1.053l2.933-1.578L60.26,22.819l-1.955,1.053l-2.933,1.578L55.387,13.413z M42.6,20.296l4.888-2.631l-0.015,12.037  l-4.888,2.63L42.6,20.296z M29.813,27.178l4.888-2.631l-0.016,12.037l-4.888,2.63L29.813,27.178z M55.354,80.17v5.433h-8.399V80.17  H55.354z M28.22,74.42v-5.5h35.247v5.5H28.22z M28.22,85.603V80.17h8.399v5.433H28.22z M73.39,45.246h5.55l-5.719,10.592H67.67  L73.39,45.246z M58.869,45.246h5.55L58.7,55.838h-5.55L58.869,45.246z M44.346,45.246h5.551l-5.72,10.592h-5.55L44.346,45.246z   M29.135,46.527l0.691-1.281h5.55l-5.72,10.592h-5.55l3.339-6.183C28.231,48.769,28.816,47.703,29.135,46.527z M16.852,34.154  l5.068-2.728l-0.008,5.288c-0.1-0.003-0.196-0.015-0.297-0.015c-1.085,0-2.117,0.224-3.057,0.626L16.852,34.154z"></path></svg>